<svg xmlns="http://www.w3.org/2000/svg" width="820" height="500" viewBox="0 0 820 500">
  <style>
    text { font-family: 'Segoe UI', 'Helvetica Neue', Arial, sans-serif; }
    .mono { font-family: Consolas, 'Cascadia Mono', Menlo, monospace; }
    .title { font-size: 17px; font-weight: 600; fill: #eef1f8; }
    .box-title { font-size: 15px; font-weight: 600; fill: #eef1f8; }
    .box-sub { font-size: 12px; fill: #7f8aa3; }
    .box-body { font-size: 12.5px; fill: #aab3c7; }
    .edge-label { font-size: 12.5px; font-weight: 600; fill: #c6cddd; }
    .edge-sub { font-size: 11.5px; font-style: italic; fill: #8b95ab; }
    .note { font-size: 12px; fill: #8b95ab; }
    .box { fill: #232a38; stroke: #3b445c; }
    .edge { stroke: #6d7891; stroke-width: 1.5; fill: none; }
  </style>
  <defs>
    <marker id="ah" viewBox="0 0 8 8" refX="7" refY="4" markerWidth="7" markerHeight="7" orient="auto-start-reverse">
      <path d="M0,0 L8,4 L0,8 Z" fill="#6d7891"/>
    </marker>
  </defs>

  <rect x="0.5" y="0.5" width="819" height="499" rx="12" fill="#14171e" stroke="#262c38"/>
  <text x="410" y="36" text-anchor="middle" class="title">How the bridge is wired</text>

  <!-- MCP client -->
  <rect x="26" y="80" width="182" height="88" rx="10" class="box"/>
  <circle cx="46" cy="106" r="4" fill="#3794ff"/>
  <text x="58" y="111" class="box-title">MCP client</text>
  <text x="42" y="134" class="box-body">Claude Code or any</text>
  <text x="42" y="152" class="box-body">MCP host</text>

  <!-- wrapper -->
  <rect x="288" y="66" width="244" height="196" rx="10" class="box"/>
  <circle cx="308" cy="92" r="4" fill="#39c5cf"/>
  <text x="320" y="97" class="box-title">edt-bridge-mcp</text>
  <text x="304" y="116" class="box-sub">python wrapper – pipx / PyPI</text>
  <line x1="304" y1="126" x2="516" y2="126" stroke="#2c3345"/>
  <text x="304" y="146" class="box-body">1. probe 127.0.0.1:8770</text>
  <text x="304" y="165" class="box-body">2. no jar? deliver from releases</text>
  <text x="304" y="184" class="box-body">3. no EDT? start headless, wait</text>
  <text x="304" y="203" class="box-body">4. forward JSON-RPC as is</text>
  <text x="304" y="222" class="box-body">5. announce tools/list_changed</text>
  <text x="304" y="241" class="box-body">6. self-update on request</text>

  <line x1="208" y1="124" x2="284" y2="124" class="edge" marker-start="url(#ah)" marker-end="url(#ah)"/>
  <text x="246" y="112" text-anchor="middle" class="edge-label">stdio MCP</text>

  <!-- backends -->
  <rect x="612" y="66" width="182" height="88" rx="10" class="box"/>
  <circle cx="632" cy="92" r="4" fill="#56d364"/>
  <text x="644" y="97" class="box-title">GUI 1C:EDT</text>
  <text x="628" y="120" class="box-body">user's session,</text>
  <text x="628" y="138" class="box-body">plugin in dropins/</text>

  <rect x="612" y="174" width="182" height="88" rx="10" class="box" stroke-dasharray="6 4"/>
  <circle cx="632" cy="200" r="4" fill="#56d364"/>
  <text x="644" y="205" class="box-title">headless EDT</text>
  <text x="628" y="228" class="box-body">1cedtcli, auto-started</text>
  <text x="628" y="246" class="box-body">by the wrapper</text>

  <line x1="532" y1="110" x2="608" y2="110" class="edge" marker-end="url(#ah)"/>
  <line x1="532" y1="218" x2="608" y2="218" class="edge" marker-end="url(#ah)"/>
  <text x="570" y="98" text-anchor="middle" class="edge-label mono">HTTP :8770</text>
  <text x="570" y="206" text-anchor="middle" class="edge-label mono">HTTP :8770</text>
  <text x="570" y="152" text-anchor="middle" class="edge-sub">either one,</text>
  <text x="570" y="167" text-anchor="middle" class="edge-sub">never both</text>

  <!-- model -->
  <rect x="612" y="302" width="182" height="92" rx="10" class="box"/>
  <circle cx="632" cy="328" r="4" fill="#ffd23f"/>
  <text x="644" y="333" class="box-title">live EDT model</text>
  <text x="628" y="356" class="box-body">projects, BM, validation</text>
  <text x="628" y="374" class="box-body">+ Syntax Helper docs</text>
  <line x1="703" y1="262" x2="703" y2="298" class="edge" marker-end="url(#ah)"/>

  <!-- releases -->
  <rect x="288" y="302" width="244" height="72" rx="10" class="box"/>
  <circle cx="308" cy="328" r="4" fill="#a78bfa"/>
  <text x="320" y="333" class="box-title">GitHub Releases</text>
  <text x="304" y="356" class="box-body">plugin jar + SHA256SUMS</text>
  <line x1="410" y1="298" x2="410" y2="266" class="edge" marker-end="url(#ah)"/>
  <text x="420" y="286" class="edge-sub">jar when missing / self-update</text>

  <text x="26" y="430" class="note">The wrapper never touches a running GUI EDT: with the port dead it only delivers the jar into dropins/</text>
  <text x="26" y="449" class="note">and asks for a restart; a headless instance it starts, restarts and reuses on its own.</text>
</svg>
